<svg xmlns="http://www.w3.org/2000/svg" viewBox="0 0 368.01 362.33"><defs><style>.bb5f239b-25b7-4367-928c-54e5e8719736{fill:#628eca;}.f155d1b0-747b-4d6a-b015-e2333ab9e1ec{fill:#8ea8d8;}.a68a81e1-1389-46bd-876b-27ef78b3d0fa{fill:#b6c4e6;}.b5b3ac37-2c67-4e30-b101-cbf9b11c0c49{fill:#2b75bb;}.beb44ee7-112e-4730-94ea-27a1bcc73b71{fill:none;stroke:#fff;stroke-miterlimit:10;stroke-width:10px;}</style></defs><g id="b942e586-d823-4249-b1bf-17b9f02e973e" data-name="Laag 2"><g id="aceca8d0-ae05-4409-b113-a6a75aeee004" data-name="Laag 1"><path class="bb5f239b-25b7-4367-928c-54e5e8719736" d="M238.06,301.86A173.13,173.13,0,0,1,122.27,0H38.68A232.49,232.49,0,0,0,0,128.72c0,129,104.59,233.61,233.61,233.61A232.52,232.52,0,0,0,368,319.75V243.08A172.71,172.71,0,0,1,238.06,301.86Z"/><path class="f155d1b0-747b-4d6a-b015-e2333ab9e1ec" d="M64.91,128.72A173.11,173.11,0,0,0,368,243.08V33.2A33.3,33.3,0,0,0,334.81,0H122.27A172.68,172.68,0,0,0,64.91,128.72Z"/><circle class="a68a81e1-1389-46bd-876b-27ef78b3d0fa" cx="238.2" cy="128.72" r="121.41"/><circle class="b5b3ac37-2c67-4e30-b101-cbf9b11c0c49" cx="238.2" cy="128.23" r="83.54"/><line class="beb44ee7-112e-4730-94ea-27a1bcc73b71" x1="236.05" y1="73.17" x2="236.05" y2="187.64"/><line class="beb44ee7-112e-4730-94ea-27a1bcc73b71" x1="178.81" y1="130.4" x2="293.28" y2="130.4"/></g></g></svg>