<svg xmlns="http://www.w3.org/2000/svg" viewBox="0 0 388.35 382.61"><defs><style>.b8e5587d-602d-441d-ad93-b8ba6541ff31{fill:#ec5f68;}.fa4226b6-1e3d-4d42-80b8-96454c4e19a3{fill:#f18d8c;}.a1439341-02dc-4017-b82f-94754404b9b5{fill:#f7b7b2;}.e35918c2-f4c4-41ea-b5e0-99c9ee183ab3{fill:#e6274a;}.b1816f1f-3cd0-47af-ba30-0e889b45429d{fill:#fff;}</style></defs><g id="a6b81a9f-a9c2-41de-9257-365dfd1755c4" data-name="Laag 2"><g id="e14e08c5-cd28-47eb-8b96-b46646eb06e2" data-name="Laag 1"><path class="b8e5587d-602d-441d-ad93-b8ba6541ff31" d="M256.93,311.37A181,181,0,0,1,131.32,0H36.23A251.13,251.13,0,0,0,0,130.32C0,269.65,113,382.61,252.29,382.61a251.1,251.1,0,0,0,136.06-39.8v-88A180.49,180.49,0,0,1,256.93,311.37Z"/><path class="fa4226b6-1e3d-4d42-80b8-96454c4e19a3" d="M75.88,130.32A181,181,0,0,0,388.35,254.78V33.61A33.71,33.71,0,0,0,354.74,0H131.32A180.47,180.47,0,0,0,75.88,130.32Z"/><circle class="a1439341-02dc-4017-b82f-94754404b9b5" cx="256.93" cy="130.32" r="122.92"/><circle class="e35918c2-f4c4-41ea-b5e0-99c9ee183ab3" cx="256.93" cy="129.82" r="84.58"/><path class="b1816f1f-3cd0-47af-ba30-0e889b45429d" d="M259.91,86.67c27.58,1,46.77,14.46,58.5,39.1a4,4,0,0,1-.11,3.06c-9.94,21.16-26,34.53-49.39,38.3-28.07,4.51-56.9-11.88-67.68-38.46a4.33,4.33,0,0,1,.06-3.11c10.32-21.86,27-35.31,51.33-38.54C255,86.7,257.48,86.78,259.91,86.67Zm-.06,76.81c21.22-1,40.64-9.88,53.23-35a3.24,3.24,0,0,0-.11-3.7C302.74,104.63,281.27,91.08,259.9,91s-43,15.28-53.67,33.73a5,5,0,0,0-.35,4.66A59.43,59.43,0,0,0,259.85,163.48Z"/><path class="b1816f1f-3cd0-47af-ba30-0e889b45429d" d="M259.59,104.63a22.61,22.61,0,1,1-22.37,22.82A22.56,22.56,0,0,1,259.59,104.63Zm8.34,23.89a7,7,0,0,0,.32-14,7.16,7.16,0,0,0-7.25,7A7.05,7.05,0,0,0,267.93,128.52Z"/></g></g></svg>