<svg xmlns="http://www.w3.org/2000/svg" viewBox="0 0 39.85 39.46"><defs><style>.b6cde7f5-d407-451b-92f8-754f4a8e2baf{fill:#1d1d1b;}</style></defs><g id="a6d7d043-9f06-4c18-8b06-ce2dbd51a4cd" data-name="Laag 2"><g id="bf0df1a1-7499-4649-a473-83056d4de5e6" data-name="Laag 1"><path class="b6cde7f5-d407-451b-92f8-754f4a8e2baf" d="M.76,30.05q9.66,4.71,19.36,9.3a1.64,1.64,0,0,0,1.25,0c5.85-3,11.68-6.09,17.52-9.12a1.55,1.55,0,0,0,1-1.59c0-3.75,0-7.5,0-11.25s0-7.57,0-11.35a1.43,1.43,0,0,0-1.3-1.64C34,3.25,29.36,2.15,24.79.92c-3-.8-5.86-1.49-8.86-.21a10.06,10.06,0,0,1-1.48.4L1.25,4.39C.57,4.56,0,4.77,0,5.68,0,13.4,0,21.13,0,28.85A1.64,1.64,0,0,0,.76,30.05ZM38.05,6.66c0,.34.05.61.05.89V27.83c0,.49,0,.87-.56,1.16-5.06,2.6-10.09,5.24-15.14,7.87-.19.1-.4.17-.73.3,0-.44,0-.72,0-1,0-7.62,0-15.25,0-22.87A1.12,1.12,0,0,1,22.52,12c4.92-1.67,9.83-3.41,14.74-5.12C37.49,6.8,37.74,6.75,38.05,6.66ZM13.76,3.05c2.07-.52,4.15-1.42,6.23-1.42s4.09.91,6.13,1.42l9.47,2.38,0,.2-7.1,2.48c-2.39.83-4.77,1.66-7.16,2.46a2.12,2.12,0,0,1-1.19.09C15,9,9.78,7.34,4.58,5.67c-.08,0-.14-.11-.31-.25C7.49,4.62,10.62,3.82,13.76,3.05Zm-12,4a4.31,4.31,0,0,1,.05-.43L10,9.19c3,1,6.08,2,9.13,2.91.5.16.87.33.86,1,0,7.85,0,15.7,0,23.55,0,.18,0,.36,0,.65-.44-.19-.78-.32-1.12-.48Q10.64,32.92,2.47,29c-.47-.23-.74-.44-.74-1.05Q1.76,17.47,1.75,7Z"/><path class="b6cde7f5-d407-451b-92f8-754f4a8e2baf" d="M14.32,20.2a1.51,1.51,0,0,0,2.42-1.32A3.48,3.48,0,0,0,15,15.67c-1.26-.77-2.48-.05-2.49,1.57A3.67,3.67,0,0,0,14.32,20.2Z"/><path class="b6cde7f5-d407-451b-92f8-754f4a8e2baf" d="M9.78,23.21a2,2,0,0,0,1.66.22,1.93,1.93,0,0,0,.8-1.47A3.2,3.2,0,0,0,10.71,19a2.13,2.13,0,0,0-1.66-.22c-.44.19-.67.87-1,1.34A4.05,4.05,0,0,0,9.78,23.21Z"/><path class="b6cde7f5-d407-451b-92f8-754f4a8e2baf" d="M5.61,26.18a1.91,1.91,0,0,0,1.55.27A1.87,1.87,0,0,0,8,25.1a3.1,3.1,0,0,0-1.33-2.91A2,2,0,0,0,5,21.85c-.46.2-.69.92-1,1.41A4.14,4.14,0,0,0,5.61,26.18Z"/><path class="b6cde7f5-d407-451b-92f8-754f4a8e2baf" d="M27,21.65a2.18,2.18,0,0,0,1.73-.23,3.29,3.29,0,0,0,1.53-3.1,1.45,1.45,0,0,0-2.36-1.24,3.88,3.88,0,0,0-1.77,3.4C26.28,20.73,26.52,21.45,27,21.65Z"/><path class="b6cde7f5-d407-451b-92f8-754f4a8e2baf" d="M33.64,25.19a4.2,4.2,0,0,0,1.81-3.13c-.32-.46-.55-1.16-1-1.34a2,2,0,0,0-1.65.28,3.3,3.3,0,0,0-1.44,3A1.38,1.38,0,0,0,33.64,25.19Z"/><path class="b6cde7f5-d407-451b-92f8-754f4a8e2baf" d="M18.25,6a4.85,4.85,0,0,0,4.42,0c.82-.4.81-1.18,0-1.57a12.67,12.67,0,0,0-2.12-.57,13.6,13.6,0,0,0-2.22.58C17.45,4.82,17.43,5.62,18.25,6Z"/></g></g></svg>