<svg xmlns="http://www.w3.org/2000/svg" viewBox="0 0 368.01 362.33"><defs><style>.f808184b-9f8d-421e-bfd2-72636ee36a36{fill:#628eca;}.baef132a-3aeb-4e3a-b349-49373aa18d25{fill:#8ea8d8;}.a5e85688-6b83-4e7d-84b0-96e026af04ff{fill:#b6c4e6;}.f8c464f9-4050-4e95-bf91-8d442f085c6e{fill:#2b75bb;}.a02e7f0f-f8e9-4f8b-8125-891b437e4842{fill:#fff;}</style></defs><g id="a7ece3d8-94e2-4c8b-8a74-31f54661786d" data-name="Laag 2"><g id="a6999732-21f5-46c4-824c-82d457f61047" data-name="Laag 1"><path class="f808184b-9f8d-421e-bfd2-72636ee36a36" d="M238.06,301.86A173.13,173.13,0,0,1,122.27,0H38.68A232.49,232.49,0,0,0,0,128.72c0,129,104.59,233.61,233.61,233.61A232.52,232.52,0,0,0,368,319.75V243.08A172.71,172.71,0,0,1,238.06,301.86Z"/><path class="baef132a-3aeb-4e3a-b349-49373aa18d25" d="M64.91,128.72A173.11,173.11,0,0,0,368,243.08V33.2A33.3,33.3,0,0,0,334.81,0H122.27A172.68,172.68,0,0,0,64.91,128.72Z"/><circle class="a5e85688-6b83-4e7d-84b0-96e026af04ff" cx="238.2" cy="128.72" r="121.41"/><circle class="f8c464f9-4050-4e95-bf91-8d442f085c6e" cx="238.2" cy="128.23" r="83.54"/><path class="a02e7f0f-f8e9-4f8b-8125-891b437e4842" d="M235.6,195.13c-.37-1-1-2.1-1-3.1,0-.45,1.6-1.06,2.48-1.08,4-.12,8.08-.12,12.11,0,.88,0,2.44.63,2.48,1.08.08,1-.59,2.06-1,3.1Z"/><path class="a02e7f0f-f8e9-4f8b-8125-891b437e4842" d="M243.1,169.05c-3.73,0-7.47,0-11.2,0-2.13,0-3.19-.87-3.19-3.05,0-4.7-2-8.45-5.13-11.9-3.84-4.26-7.61-8.63-11-13.25a37.38,37.38,0,0,1-1.45-42.34c8.25-13,23.75-20,38.54-17.22A38,38,0,0,1,280.31,111,36.38,36.38,0,0,1,274,140.6c-3.61,5-7.73,9.57-11.74,14.23-2.6,3-4.42,6.28-4.28,10.34.1,3.08-1.34,4.07-4.27,3.92C250.18,168.91,246.64,169.05,243.1,169.05Zm10.58-4.4c0-6.22,3.52-10.55,7.35-14.8,3.17-3.52,6.22-7.17,9.06-11a32.7,32.7,0,0,0,6.42-25.08c-2.74-18.82-20.4-31-38.45-28.5-17.51,2.47-31.26,20.72-28.31,38.15,1.5,8.87,6.34,15.72,11.94,22.31,4.82,5.67,11.29,10.38,11.15,18.88Z"/><path class="a02e7f0f-f8e9-4f8b-8125-891b437e4842" d="M243.2,178.19c-3.83,0-7.67.13-11.49-.09-1,0-1.92-1.19-2.88-1.82.94-.78,1.87-2.21,2.83-2.23q11.49-.28,23,0c1,0,1.92,1.43,2.88,2.19-.94.65-1.85,1.81-2.83,1.87C250.87,178.32,247,178.19,243.2,178.19Z"/><path class="a02e7f0f-f8e9-4f8b-8125-891b437e4842" d="M243.29,186.66c-3,0-6.08.17-9.09-.1-1-.09-1.84-1.33-2.76-2.05.95-.7,1.87-2,2.84-2,5.95-.19,11.92-.19,17.87,0,.94,0,1.84,1.36,2.75,2.09-.94.69-1.83,1.88-2.83,2C249.16,186.83,246.22,186.66,243.29,186.66Z"/><path class="a02e7f0f-f8e9-4f8b-8125-891b437e4842" d="M245.29,64.75a14.74,14.74,0,0,1-.08,3.88c-.27.94-1.28,1.67-2,2.5-.73-.78-2-1.49-2.09-2.33a34.1,34.1,0,0,1,0-7.49c.1-.91,1.27-1.7,1.95-2.54a11.06,11.06,0,0,1,2.11,2.7C245.58,62.44,245.29,63.65,245.29,64.75Z"/><path class="a02e7f0f-f8e9-4f8b-8125-891b437e4842" d="M213.82,66.52c2.61,0,7.71,8.43,6.9,10a2.09,2.09,0,0,1-3.7.06,48.16,48.16,0,0,1-4-7.11C212.7,68.63,213.58,67.32,213.82,66.52Z"/><path class="a02e7f0f-f8e9-4f8b-8125-891b437e4842" d="M266.83,78.13c-.45-1.3-1.41-2.6-1.08-3.35a42.17,42.17,0,0,1,4.12-7.28c.43-.6,1.92-.77,2.82-.6.43.08,1.09,1.66.84,2.16-1.33,2.67-2.88,5.24-4.45,7.79C268.82,77.28,268.1,77.43,266.83,78.13Z"/><path class="a02e7f0f-f8e9-4f8b-8125-891b437e4842" d="M194,86.81c3.05,1.91,5.95,3.66,8.72,5.59.34.23.28,1.75-.12,2.16a2.6,2.6,0,0,1-2.32.62,70.75,70.75,0,0,1-7.55-4.36,2.75,2.75,0,0,1-.58-2.36C192.28,87.87,193.21,87.47,194,86.81Z"/><path class="a02e7f0f-f8e9-4f8b-8125-891b437e4842" d="M294.7,88.61c-.32,1.09-.32,1.53-.5,1.64-3,1.75-6,3.51-9.1,5.11-.26.13-1.51-.82-1.6-1.37a2.79,2.79,0,0,1,.79-2.32,47.32,47.32,0,0,1,7.31-4.17C292.35,87.17,293.68,88.21,294.7,88.61Z"/><path class="a02e7f0f-f8e9-4f8b-8125-891b437e4842" d="M251.14,121.11,243.26,119l-8.11,2c5.18,10.61,6.1,22.51,5.95,34.59,0,1.66.12,3.65-2.12,3.6s-2.14-2-2.13-3.69c.06-8.9,0-17.81-3.09-26.31-1.46-4.06-3.5-7.91-5.12-11.91-.39-1-.6-2.6-.08-3.13s2.11-.44,3.16-.24a9,9,0,0,1,3,1.34c2.3,1.44,4.32,1.32,6.2-.72,1.42-1.54,2.93-1.67,4.38,0,2,2.2,4.1,2.14,6.48.66a10.93,10.93,0,0,1,3.31-1.43c.85-.19,2.28-.17,2.63.33a3.6,3.6,0,0,1,.15,2.89c-2.11,5.54-5.12,10.85-6.37,16.56-1.45,6.63-1.42,13.59-2,20.4-.08,1,.25,2.16-.13,3s-1.47,1.58-2.24,2.35c-.63-.79-1.79-1.56-1.81-2.37-.27-11.55.32-23,4.95-33.85C250.64,122.24,251,121.43,251.14,121.11Z"/><path class="a02e7f0f-f8e9-4f8b-8125-891b437e4842" d="M242.19,89.4c.63.29,2.08.51,2.78,1.36,1.13,1.38-.37,2.91-3.07,3-7.93.39-14,4-18.57,10.39-.81,1.14-1.24,2.61-2.18,3.61a10.52,10.52,0,0,1-3,1.59c-.22-1.14-1-2.54-.56-3.4C222.37,95.94,230.5,90.61,242.19,89.4Z"/><path class="a02e7f0f-f8e9-4f8b-8125-891b437e4842" d="M214.47,118.59c.75-.9,1.49-2.61,2.44-2.74,2.2-.29,2.13,1.68,2.36,3.33.35,2.46,1.16,4.86,1.44,7.33.12,1-.6,2.17-.93,3.26-1-.59-2.55-1-2.85-1.82C215.92,125.14,215.37,122.18,214.47,118.59Z"/></g></g></svg>