<svg xmlns="http://www.w3.org/2000/svg" viewBox="0 0 380.4 374.78"><defs><style>.b4bef531-1089-4f3b-925b-4c828ba7a957{fill:#f49d6c;}.a8d79e0d-1835-49c3-aec1-ee1b0ff27846{fill:#f8b791;}.e85a5203-5602-4afa-98f2-24270844b7bc{fill:#fbd0b6;}.a18f8f21-5ede-4d41-859a-53864e4c7958{fill:#f08149;}.a6844131-b536-4f05-916b-b7ff0b681116{fill:none;stroke:#fff;stroke-miterlimit:10;stroke-width:5px;}</style></defs><g id="a23c26e0-e642-49a9-b2db-eb86cd7d4b1f" data-name="Laag 2"><g id="bb86fd8d-0188-4eb8-a7a2-5adb45a7a9b5" data-name="Laag 1"><path class="b4bef531-1089-4f3b-925b-4c828ba7a957" d="M251.68,305a177.3,177.3,0,0,1-123-305H35.49A246,246,0,0,0,0,127.65C0,264.14,110.64,374.78,247.13,374.78a245.9,245.9,0,0,0,133.27-39V249.57A176.81,176.81,0,0,1,251.68,305Z"/><path class="a8d79e0d-1835-49c3-aec1-ee1b0ff27846" d="M74.33,127.65A177.3,177.3,0,0,0,380.4,249.57V32.92A33,33,0,0,0,347.48,0H128.63A176.78,176.78,0,0,0,74.33,127.65Z"/><circle class="e85a5203-5602-4afa-98f2-24270844b7bc" cx="251.68" cy="127.65" r="120.41"/><circle class="a18f8f21-5ede-4d41-859a-53864e4c7958" cx="251.68" cy="127.17" r="82.85"/><polygon class="a6844131-b536-4f05-916b-b7ff0b681116" points="253.33 71.36 270.27 105.7 308.16 111.2 280.74 137.92 287.21 175.66 253.33 157.84 219.44 175.66 225.91 137.92 198.5 111.2 236.38 105.7 253.33 71.36"/></g></g></svg>