<svg xmlns="http://www.w3.org/2000/svg" viewBox="0 0 24.33 36.55"><defs><style>.bacd973e-cc26-44a2-b425-e80730339822,.f1be0aba-edb4-4557-b792-02debba7aa1c{fill:#1d1d1b;}.bacd973e-cc26-44a2-b425-e80730339822{stroke:#1d1d1b;stroke-miterlimit:10;stroke-width:0.25px;}</style></defs><g id="f5fe0609-64c5-461c-b964-ac1d469f6f40" data-name="Laag 2"><g id="a3eef893-eb57-4e42-b00d-3300562cb64b" data-name="Laag 1"><path class="bacd973e-cc26-44a2-b425-e80730339822" d="M9.76,36.43a2.77,2.77,0,0,1-.31-1c0-.14.51-.33.79-.34q1.92-.06,3.84,0c.28,0,.78.2.79.34a2.77,2.77,0,0,1-.31,1Z"/><path class="bacd973e-cc26-44a2-b425-e80730339822" d="M12.14,28.15c-1.19,0-2.37,0-3.56,0-.67,0-1-.28-1-1a5.47,5.47,0,0,0-1.63-3.78c-1.22-1.35-2.41-2.74-3.49-4.2A11.85,11.85,0,0,1,2,5.78a12,12,0,0,1,22,4,11.54,11.54,0,0,1-2,9.38c-1.15,1.57-2.45,3-3.73,4.51a4.75,4.75,0,0,0-1.36,3.28c0,1-.42,1.29-1.35,1.25C14.38,28.11,13.26,28.15,12.14,28.15Zm3.35-1.39c0-2,1.12-3.35,2.33-4.7,1-1.12,2-2.27,2.88-3.48a10.4,10.4,0,0,0,2-7.95,10.79,10.79,0,0,0-12.2-9C5,2.37.62,8.16,1.55,13.69a14.83,14.83,0,0,0,3.79,7.08c1.53,1.8,3.58,3.29,3.54,6Z"/><path class="bacd973e-cc26-44a2-b425-e80730339822" d="M12.17,31.05c-1.22,0-2.44,0-3.65,0-.31,0-.61-.38-.91-.58.3-.25.59-.7.9-.71q3.64-.09,7.29,0c.31,0,.61.45.91.69-.3.21-.59.58-.9.59C14.6,31.09,13.38,31.05,12.17,31.05Z"/><path class="bacd973e-cc26-44a2-b425-e80730339822" d="M12.2,33.74c-1,0-1.93,0-2.89,0-.3,0-.58-.42-.87-.65.3-.22.59-.63.9-.64q2.84-.09,5.67,0c.3,0,.58.43.87.66-.3.22-.58.6-.9.63C14.06,33.79,13.13,33.74,12.2,33.74Z"/><path class="f1be0aba-edb4-4557-b792-02debba7aa1c" d="M14.69,12.94l-2.5-.66-2.58.64c1.65,3.36,1.94,7.14,1.89,11,0,.53,0,1.16-.67,1.14s-.68-.64-.68-1.17a23.73,23.73,0,0,0-1-8.34C8.71,14.23,8.06,13,7.55,11.74c-.12-.31-.19-.83,0-1s.67-.14,1-.07a3,3,0,0,1,1,.42,1.37,1.37,0,0,0,2-.23.85.85,0,0,1,1.4,0,1.42,1.42,0,0,0,2.05.21,3.37,3.37,0,0,1,1-.45c.27-.06.72,0,.83.1a1.13,1.13,0,0,1,0,.92,39.12,39.12,0,0,0-2,5.25,51.52,51.52,0,0,0-.64,6.48,3,3,0,0,1,0,.95,3.09,3.09,0,0,1-.71.74c-.2-.25-.57-.49-.57-.75a25.22,25.22,0,0,1,1.57-10.74C14.53,13.3,14.64,13,14.69,12.94Z"/><path class="f1be0aba-edb4-4557-b792-02debba7aa1c" d="M11.85,2.88c.2.09.66.16.88.43.36.44-.12.93-1,1a7.37,7.37,0,0,0-5.9,3.3,9.33,9.33,0,0,1-.69,1.14,3.45,3.45,0,0,1-1,.51c-.07-.37-.31-.81-.18-1.08A9,9,0,0,1,11.85,2.88Z"/><path class="f1be0aba-edb4-4557-b792-02debba7aa1c" d="M3.05,12.14c.24-.28.48-.82.78-.86.7-.1.67.53.75,1.05.11.78.36,1.54.45,2.33a2.91,2.91,0,0,1-.29,1c-.32-.19-.81-.31-.91-.58C3.51,14.22,3.34,13.28,3.05,12.14Z"/></g></g></svg>