<svg xmlns="http://www.w3.org/2000/svg" viewBox="0 0 36.71 25.33"><defs><style>.e7c2ed14-d5ee-4333-8e69-7995b644d3b2{fill:#1d1d1b;}</style></defs><g id="a9e7956f-176e-4079-a815-22985bad8a5a" data-name="Laag 2"><g id="ac2bef9a-dc29-4b2b-912d-e3e853c15967" data-name="Laag 1"><path class="e7c2ed14-d5ee-4333-8e69-7995b644d3b2" d="M18.39,0C27,.3,33,4.51,36.64,12.2a1.26,1.26,0,0,1,0,1c-3.1,6.6-8.11,10.77-15.41,12A19.79,19.79,0,0,1,.08,13.1a1.35,1.35,0,0,1,0-1c3.22-6.82,8.43-11,16-12C16.86,0,17.63,0,18.39,0Zm0,24C25,23.65,31,20.88,35,13.05a1,1,0,0,0,0-1.15A19.27,19.27,0,0,0,18.38,1.35C11.7,1.33,5,6.12,1.64,11.87a1.55,1.55,0,0,0-.11,1.46A18.55,18.55,0,0,0,18.37,24Z"/><path class="e7c2ed14-d5ee-4333-8e69-7995b644d3b2" d="M18.29,5.6a7.06,7.06,0,1,1-7,7.12A7,7,0,0,1,18.29,5.6Zm2.6,7.45a2.14,2.14,0,0,0,2.23-2.17A2.17,2.17,0,0,0,21,8.68a2.23,2.23,0,0,0-2.26,2.19A2.19,2.19,0,0,0,20.89,13.05Z"/></g></g></svg>