<svg xmlns="http://www.w3.org/2000/svg" viewBox="0 0 367.95 362.51"><defs><style>.bef1426d-233e-45e6-8a92-a511cd3a779c{fill:#a8cc6e;}.af9b0c00-949d-407c-b5db-5344732a4775{fill:#c0d996;}.a4cb08fa-e7a5-4df0-a611-65d2787e1d7b{fill:#d6e6bb;}.b8e3c635-86b2-4073-8f36-7312f9640ecd{fill:#8dc046;}.febd10b6-28ff-40dc-83af-7a6861ed64ee{fill:#fff;}</style></defs><g id="fbf74d7c-1e89-4721-bb9a-e1be497e5ab9" data-name="Laag 2"><g id="aeafaea1-d0e9-478e-a596-44d10134787e" data-name="Laag 1"><path class="bef1426d-233e-45e6-8a92-a511cd3a779c" d="M243.44,295a171.49,171.49,0,0,1-119-295H34.32A238,238,0,0,0,0,123.47c0,132,107,239,239,239A238,238,0,0,0,368,324.8V241.4A171,171,0,0,1,243.44,295Z"/><path class="af9b0c00-949d-407c-b5db-5344732a4775" d="M71.89,123.47A171.5,171.5,0,0,0,368,241.4V31.85A31.94,31.94,0,0,0,336.1,0H124.42A171,171,0,0,0,71.89,123.47ZM243.44,7A116.47,116.47,0,1,1,127,123.47,116.46,116.46,0,0,1,243.44,7Z"/><path class="a4cb08fa-e7a5-4df0-a611-65d2787e1d7b" d="M243.44,239.94A116.47,116.47,0,1,0,127,123.47,116.47,116.47,0,0,0,243.44,239.94Zm0-197.08A80.14,80.14,0,1,1,163.3,123,80.14,80.14,0,0,1,243.44,42.86Z"/><path class="b8e3c635-86b2-4073-8f36-7312f9640ecd" d="M247.88,112.23c.07,20.08,0,40.16.05,60.24,0,.74.06,1.49.11,2.64.87-.36,1.41-.54,1.92-.8,13.28-6.92,26.55-13.88,39.87-20.73,1.48-.76,1.48-1.77,1.48-3.06q0-26.7,0-53.4c0-.73-.07-1.46-.12-2.35-.82.23-1.46.37-2.08.58-12.94,4.51-25.86,9.08-38.83,13.48C248.36,109.48,247.87,110.35,247.88,112.23Zm29.51,20.3a5.42,5.42,0,0,1,4.35-.72c1.15.47,1.75,2.3,2.59,3.53-.62,3.7-2,6.42-4.77,8.23-3,1.9-5.86.35-6-3.2A8.75,8.75,0,0,1,277.39,132.53Zm-13-10.31c3.08-1.9,6.05-.32,6.22,3.26a8.62,8.62,0,0,1-4,8.15,5.72,5.72,0,0,1-4.56.62c-1.21-.52-1.83-2.42-2.28-3.08C260,126.76,261.46,124,264.38,122.22Z"/><path class="b8e3c635-86b2-4073-8f36-7312f9640ecd" d="M244.11,105.29a5.37,5.37,0,0,0,3.13-.23c6.3-2.1,12.57-4.3,18.85-6.47l18.71-6.53-.1-.54-24.95-6.26c-5.38-1.35-10.77-3.74-16.15-3.73s-10.95,2.36-16.41,3.72c-8.26,2-16.51,4.14-25,6.27.44.36.61.58.82.65C216.7,96.57,230.39,101,244.11,105.29Zm-5-16.37A36.18,36.18,0,0,1,245,87.39a32.15,32.15,0,0,1,5.58,1.51c2.23,1,2.26,3.08.09,4.14a12.8,12.8,0,0,1-11.65,0C236.85,92,236.9,89.91,239.15,88.92Z"/><path class="b8e3c635-86b2-4073-8f36-7312f9640ecd" d="M197.45,153.63q21.53,10.29,43,20.64c.88.42,1.8.76,2.94,1.24.06-.75.12-1.23.12-1.7,0-20.67,0-41.35.05-62,0-1.83-.94-2.26-2.28-2.68l-24-7.67-21.56-6.87a9.88,9.88,0,0,0-.15,1.11c0,18.4,0,36.79-.06,55.19C195.5,152.47,196.22,153,197.45,153.63Zm33-35.14A9.16,9.16,0,0,1,235,127c-.09,3.64-3.22,5.31-6.38,3.47a9.66,9.66,0,0,1-4.74-7.8C224,118.38,227.18,116.47,230.48,118.49Zm-15.68,8.28a5.59,5.59,0,0,1,4.37.59,8.46,8.46,0,0,1,4,7.7,5.11,5.11,0,0,1-2.11,3.87c-1.1.57-3.19.18-4.37-.56-2.72-1.7-4-4.47-4.53-8.06C213,129.07,213.64,127.26,214.8,126.77Zm-10.65,8c1.11-.49,3.13.09,4.27.89a8.13,8.13,0,0,1,3.49,7.65,4.88,4.88,0,0,1-2.11,3.56c-1.05.49-3,0-4.08-.71-2.48-1.68-3.65-4.29-4.27-7.68C202.33,137.2,202.94,135.32,204.15,134.79Z"/><path class="b8e3c635-86b2-4073-8f36-7312f9640ecd" d="M243.44,203.14A80.14,80.14,0,1,0,163.3,123,80.14,80.14,0,0,0,243.44,203.14ZM203.32,94.25l26.33-6.55a19.1,19.1,0,0,0,2.95-.79c6-2.57,11.77-1.18,17.68.41,9.1,2.46,18.27,4.65,27.43,6.88,1.84.45,2.64,1.27,2.61,3.28-.11,7.55,0,15.09,0,22.64s0,15,0,22.44a3.12,3.12,0,0,1-1.89,3.18c-11.67,6-23.29,12.16-35,18.18A3.19,3.19,0,0,1,241,164q-19.36-9.18-38.62-18.56a3.15,3.15,0,0,1-1.43-2.38c-.09-15.41,0-30.82-.09-46.23C200.81,95,202,94.59,203.32,94.25Z"/><path class="febd10b6-28ff-40dc-83af-7a6861ed64ee" d="M193,156.37q25.42,12.4,51,24.5a4.24,4.24,0,0,0,3.28-.09c15.41-8,30.76-16,46.16-24a4.11,4.11,0,0,0,2.5-4.19c-.07-9.88,0-19.76,0-29.63s-.08-19.92.06-29.88c0-2.66-1-3.75-3.44-4.34-12.1-3-24.21-5.84-36.23-9.08-7.8-2.1-15.45-3.93-23.33-.54a26.3,26.3,0,0,1-3.9,1L194.25,88.8c-1.8.44-3.3,1-3.3,3.39.06,20.35,0,40.69.12,61A4.21,4.21,0,0,0,193,156.37Zm98.21-61.6c.05.89.12,1.62.12,2.35q0,26.7,0,53.4c0,1.29,0,2.3-1.48,3.06-13.32,6.85-26.59,13.81-39.87,20.73-.51.26-1.05.44-1.92.8,0-1.15-.11-1.9-.11-2.64,0-20.08,0-40.16-.05-60.24,0-1.88.48-2.75,2.38-3.4,13-4.4,25.89-9,38.83-13.48C289.71,95.14,290.35,95,291.17,94.77Zm-64-9.52c5.46-1.36,10.94-3.71,16.41-3.72s10.77,2.38,16.15,3.73l24.95,6.26.1.54-18.71,6.53c-6.28,2.17-12.55,4.37-18.85,6.47a5.37,5.37,0,0,1-3.13.23C230.39,101,216.7,96.57,203,92.17c-.21-.07-.38-.29-.82-.65C210.68,89.39,218.93,87.3,227.19,85.25ZM195.56,95.68a9.88,9.88,0,0,1,.15-1.11l21.56,6.87,24,7.67c1.34.42,2.29.85,2.28,2.68-.07,20.67,0,41.35-.05,62,0,.47-.06.95-.12,1.7-1.14-.48-2.06-.82-2.94-1.24Q219,164,197.45,153.63c-1.23-.59-1.95-1.16-1.95-2.76C195.57,132.47,195.55,114.08,195.56,95.68Z"/><path class="febd10b6-28ff-40dc-83af-7a6861ed64ee" d="M228.66,130.43c3.16,1.84,6.29.17,6.38-3.47a9.16,9.16,0,0,0-4.56-8.47c-3.3-2-6.51-.11-6.56,4.14A9.66,9.66,0,0,0,228.66,130.43Z"/><path class="febd10b6-28ff-40dc-83af-7a6861ed64ee" d="M216.72,138.37c1.18.74,3.27,1.13,4.37.56a5.11,5.11,0,0,0,2.11-3.87,8.46,8.46,0,0,0-4-7.7,5.59,5.59,0,0,0-4.37-.59c-1.16.49-1.76,2.3-2.61,3.54C212.75,133.9,214,136.67,216.72,138.37Z"/><path class="febd10b6-28ff-40dc-83af-7a6861ed64ee" d="M205.72,146.18c1.09.73,3,1.2,4.08.71a4.88,4.88,0,0,0,2.11-3.56,8.13,8.13,0,0,0-3.49-7.65c-1.14-.8-3.16-1.38-4.27-.89s-1.82,2.41-2.7,3.71C202.07,141.89,203.24,144.5,205.72,146.18Z"/><path class="febd10b6-28ff-40dc-83af-7a6861ed64ee" d="M262,134.25a5.72,5.72,0,0,0,4.56-.62,8.62,8.62,0,0,0,4-8.15c-.17-3.58-3.14-5.16-6.22-3.26-2.92,1.79-4.35,4.54-4.65,8.95C260.18,131.83,260.8,133.73,262,134.25Z"/><path class="febd10b6-28ff-40dc-83af-7a6861ed64ee" d="M279.56,143.57c2.81-1.81,4.15-4.53,4.77-8.23-.84-1.23-1.44-3.06-2.59-3.53a5.42,5.42,0,0,0-4.35.72,8.75,8.75,0,0,0-3.8,7.84C273.7,143.92,276.59,145.47,279.56,143.57Z"/><path class="febd10b6-28ff-40dc-83af-7a6861ed64ee" d="M239,93.09a12.8,12.8,0,0,0,11.65,0c2.17-1.06,2.14-3.12-.09-4.14A32.15,32.15,0,0,0,245,87.39a36.18,36.18,0,0,0-5.84,1.53C236.9,89.91,236.85,92,239,93.09Z"/></g></g></svg>